<svg id="Layer_1" data-name="Layer 1" xmlns="http://www.w3.org/2000/svg" viewBox="0 0 829.54 585.06"><defs><style>.cls-1{fill:#fff;}.cls-1,.cls-2{stroke:#231f20;stroke-miterlimit:10;stroke-width:4px;}.cls-2{fill:#8dc63f;}</style></defs><polygon class="cls-1" points="122.53 2 718.53 2 702.53 538 675.53 46 177.53 56 169.53 543 692.53 566 128.53 583 122.53 2"/><path class="cls-1" d="M-257.9,19.57" transform="translate(-79.47 -207.5)"/><path class="cls-2" d="M163,477.65a92,92,0,0,1-6.45,21.29,54.34,54.34,0,0,1-11.09,16.39,26.3,26.3,0,0,1-16.8,7.61,42.11,42.11,0,0,1-14.72-1.6A70.56,70.56,0,0,1,96,513l13.28-38.26a10.15,10.15,0,0,0,5,3.77,16.23,16.23,0,0,0,7.69,1.14c1.92-.17,3.49-1.91,4.72-5.24a63.89,63.89,0,0,0,3-11.46,116.63,116.63,0,0,0,1.49-13.26q.36-6.77.49-10.88,2.5-23.59,4.56-47T141.75,345a204.6,204.6,0,0,0,20.89-4.84q10.23-2.94,20.5-6.73-2.52,12.51-5,28.38t-4.63,32.45q-2.16,16.57-4,32.51t-3.16,28.59Q165.11,466,163,477.65Z" transform="translate(-79.47 -207.5)"/><path class="cls-2" d="M258.85,488.53a59.56,59.56,0,0,1-13,17,56.87,56.87,0,0,1-16.78,10.62,63.12,63.12,0,0,1-18.4,4.5,37.42,37.42,0,0,1-11.39-.81,31.63,31.63,0,0,1-10.75-4.48,29.2,29.2,0,0,1-8.33-8.42,26.86,26.86,0,0,1-4.12-12.65c-.05-.64-.11-1.28-.16-1.91a7.46,7.46,0,0,1,.07-1.94q.09-9.89,1-23.94t2-29.33q1.06-15.27,2.61-30.7t2.73-28.07q1.17-12.62,2.13-21c.63-5.6,1.06-9.05,1.26-10.35q5-.92,11.85-2.24t12.81-2.33q7.35-1.37,14.46-2.71-3.69,29.48-6.42,53.32-1.27,10.23-2.42,20.45t-2.22,18.75Q214.81,440.82,214,447t-1.29,10.11c-.33,2.6-.69,5.88-1.06,9.85a59.08,59.08,0,0,0-.15,10.73A10.25,10.25,0,0,0,214,483.9a5.81,5.81,0,0,0,5,2.09,8.3,8.3,0,0,0,6.41-3.81,29.22,29.22,0,0,0,3.75-8.16,48.7,48.7,0,0,0,1.82-9.44c.29-3.15.59-5.63.92-7.42q.82-7.07,1.88-15.71t2-18q1-9.36,1.94-19.09t1.83-18.95q2.24-21.39,4.09-44.2l36.13-5.57q-1.31,12.64-2.32,23.09t-2.13,23.79q-1.12,13.35-2.75,27.83t-3.17,28.46q-1.54,14-3.17,25.7A77.44,77.44,0,0,1,258.85,488.53Z" transform="translate(-79.47 -207.5)"/><path class="cls-2" d="M272.08,507.58q3.75-34.29,7.16-66.88,1.22-13.59,2.69-28.54t2.61-29.38q1.14-14.43,2-27.88t1.11-24.55q7.36-1.12,14.26-2.21c4.11-.68,8.32-1.33,12.6-1.95s8.08-1.23,11.4-1.84q4.71,18.15,8.57,34.67,1.83,7.07,3.82,14.72t3.82,14.72q1.81,7.07,3.59,13.54t3.41,11.39c.34-3.41.72-7.33,1.14-11.79s.88-9.15,1.41-14.09,1.09-10,1.68-15.21,1.16-10.22,1.7-15.08q2.12-17.06,4.35-35.56l28.86-6.14q-5,36.59-8.41,69.16-1.65,14.11-3.17,28.46t-2.75,27.71q-1.24,13.36-1.95,24.62t-1,19a50.43,50.43,0,0,0-5.53,1.57c-3.2,1-6.88,2.17-11,3.49s-8.28,2.69-12.41,4.1-7.22,2.52-9.23,3.33q-3.37-19.21-6.81-36.5-1.36-7.35-3-15.16t-3.11-14.9Q318.43,423.31,317,417t-2.48-10.51c-.23,2.91-.56,6.48-1,10.69s-.85,8.71-1.23,13.48-.76,9.7-1.12,14.79-.8,10.07-1.34,14.94q-1.62,17.25-3.6,36Z" transform="translate(-79.47 -207.5)"/><path class="cls-2" d="M388.27,493.91q4.25-34.1,7.7-66.2,1.18-13.83,2.55-28.65t2.37-29.36q1-14.54,1.63-28.21t.6-24.74c3.7,0,7.86-.09,12.51-.26s9-.26,13-.29q7.22-.15,14.39-.78c-.1.66-.24,1.87-.4,3.65s-.38,3.93-.65,6.44-.54,5.31-.83,8.39-.63,6.16-1,9.24q-1,10.69-2.23,24.05l1.42-.37q2-4,5.88-11.23t7.94-15.27q4.11-8.07,8-15.52t6.59-12.75q11.87-2,23.72-4.24t23.64-5.2q-9.93,16-19.17,31.55-4,6.61-8.07,13.72t-8.06,13.95q-4,6.85-7.4,13.18t-6.09,11.61q7.38,23.7,16.52,45.54t18.6,44.62c-3.69.17-7.44.38-11.27.63s-7.59.54-11.25.86q-6.93.62-13.38,1.29t-13.36,1.53q-3.51-15.34-7.51-32.22t-7.52-32.23l-3.87,5.4q-1,7.32-2.15,18T429,460.72q-1.16,11.67-2.47,24.07Z" transform="translate(-79.47 -207.5)"/><path class="cls-2" d="M553.54,480.18l3.32-171.34a157.44,157.44,0,0,0,21-4.13,188.74,188.74,0,0,1,19.5-4.23c0,.16-.08,1.81-.29,5s-.49,7.27-.84,12.36S595.45,328.63,595,335s-1,15.15-1.91,26.3-2,26.6-3.3,46.31l3.59-.32q4.29-22.53,7.13-36.88t4.59-23.29q1.74-8.94,3.3-17.27t3-15.44q1.43-7.11,2.2-12l2.15-.19a80.77,80.77,0,0,0,8.69-1.24q4.38-.86,8.27-1.8c2.6-.63,5.3-1.39,8.12-2.28a84.57,84.57,0,0,0-.31,8.94q0,6.75-.14,16.27t-.09,21q0,11.45,0,22.4t0,20.84q0,9.89-.09,16.87l4.3-.37L658.3,298q8-1.9,15.83-3.55,6.86-1.56,14.18-3.17c4.88-1.06,9.2-2.17,13-3.3q-2.71,10.35-5.22,23t-5.14,26.59q-2.64,14-4.89,28.13t-4.47,27.38q-5,31.28-9.32,64.18L619,471.08l2.45-93.21-2.87.25L602.49,467Z" transform="translate(-79.47 -207.5)"/><path class="cls-2" d="M765.6,458.52l-12.72,3.28q.27-8,.56-15.71.12-6.75.14-13.5c0-4.5,0-8.35.07-11.57l-20.8,1.82L726.3,458.1c-3.47.79-7.56,1.67-12.3,2.64l-13.25,2.73q-7.57,1.62-14.9,3.23,6.78-32.62,13.41-64.29,2.7-13.25,5.65-27.72t5.91-28.83q3-14.34,5.65-27.59T721.1,294q16.15-2.61,32.86-5.76t32.48-7.42q0,7.71.11,19.14t.61,24.88q.45,13.45,1,28.1t1.08,28.82q1.68,33.09,3.49,70.28-7.07,1.83-14.17,3.17Q772.68,456.69,765.6,458.52Zm-29.1-60.09c.63-.06,1.79-.2,3.45-.43l5.24-.7c1.82-.23,3.53-.46,5.12-.68a19.55,19.55,0,0,0,3.32-.66c-.09-.95-.11-2.6-.07-4.93s0-5,0-7.95,0-6.22,0-9.76,0-7,.06-10.36q-.12-12.29.09-26.51l-.38-20.93-3.57.56-3.7,21Z" transform="translate(-79.47 -207.5)"/><path class="cls-2" d="M893.35,433q-2.8,1-7,2.54L877.13,439q-5,1.89-9.79,3.75t-9,3.56c-2.79,1.12-5,2.08-6.5,2.85q-1.54-9.5-2.82-18.54-1.17-7.84-2.46-15.69t-2-13.07c-1.12,3.63-2.62,8.18-4.46,13.64s-3.67,10.84-5.46,16.14q-3.29,9.19-6.8,18.66l-41,0q10.1-22.32,20.23-44.17a464.15,464.15,0,0,0,18.19-45.44Q823,350,820.93,341.74t-4.44-16.23q-2.38-8-5-16.07T806,291l36.87-19.13q2.18,11.14,4.93,24.63t4.94,24.86q4.46-12.44,8.79-24.86t9.05-24.64l35.48,6.29q-5.3,11.07-9.54,20.35t-8,18.53q-3.76,9.24-7.51,18.85t-8,21.3q2.35,10.4,5.08,19.55t5.8,18q3.06,8.89,6.14,17.89t6.61,19.06A27.43,27.43,0,0,1,893.35,433Z" transform="translate(-79.47 -207.5)"/><path class="cls-2" d="M462,677.27a54.75,54.75,0,0,1-9.67,16.14,75.22,75.22,0,0,1-15.09,13.37,118,118,0,0,1-18.61,10.3,133.4,133.4,0,0,1-20.34,7.08A122.89,122.89,0,0,1,378,727.74a89.53,89.53,0,0,1-16.62,0,798.4,798.4,0,0,0,10.92-85.88q3.09-43,5.55-86.61,12.19-3.72,25.41-6.92a185.4,185.4,0,0,1,27.56-4.46,61.12,61.12,0,0,1,12.8.32,33.6,33.6,0,0,1,12.65,4.2,32.09,32.09,0,0,1,10.08,9.23q4.24,5.89,5.09,15.46a47.56,47.56,0,0,1-1.51,17.24,62,62,0,0,1-6.39,15,54.8,54.8,0,0,1-9.67,12,48,48,0,0,1-11.57,8.12,32.25,32.25,0,0,1,6.87,4.21,43.55,43.55,0,0,1,6.85,6.75,37.13,37.13,0,0,1,5.53,9.52,43.09,43.09,0,0,1,2.93,12.75A41.25,41.25,0,0,1,462,677.27ZM406.62,649c-.31,3-.57,5.88-.81,8.63s-.52,5.63-.82,8.62-.59,6.52-.88,10.56a104.08,104.08,0,0,0,10.13-2.57,48.41,48.41,0,0,0,10.68-4.67,26.65,26.65,0,0,0,8.26-7.47,15.13,15.13,0,0,0,2.7-10.48,11.25,11.25,0,0,0-2.9-7,19.1,19.1,0,0,0-6.16-4.28,26.71,26.71,0,0,0-7.77-2.09,38.14,38.14,0,0,0-7.72-.17l-2,.18a7.21,7.21,0,0,0-1.77.4Q407.07,644.49,406.62,649Zm6.07-62.8q-.29,3.63-.66,7.64t-.87,7.91q-.51,3.9-.73,6.81A84.69,84.69,0,0,0,420.72,605a71.75,71.75,0,0,0,9.12-4.53,26.57,26.57,0,0,0,6.3-5,7.16,7.16,0,0,0,2.05-5.48,8.19,8.19,0,0,0-2.66-5.67,16.25,16.25,0,0,0-5.94-3.22,32.36,32.36,0,0,0-7.35-1.4,42,42,0,0,0-6.63,0l-2.39.21Q413,582.54,412.69,586.18Z" transform="translate(-79.47 -207.5)"/><path class="cls-2" d="M585.63,616.09a161.65,161.65,0,0,1-8.33,32.77,130.92,130.92,0,0,1-13.88,27.24,127.6,127.6,0,0,1-17.55,21,83.16,83.16,0,0,1-19.26,14,52.29,52.29,0,0,1-19.24,5.9,33.76,33.76,0,0,1-14.6-1.74,31.51,31.51,0,0,1-12-7.86A43.17,43.17,0,0,1,471.9,693a78.16,78.16,0,0,1-4.68-21.88,128.51,128.51,0,0,1,.88-28.5,203.27,203.27,0,0,1,6.51-30.21,163.18,163.18,0,0,1,11.68-29,140.47,140.47,0,0,1,16.37-24.93,86.92,86.92,0,0,1,20.11-18,51.37,51.37,0,0,1,23.38-8.07q10.77-.93,18.2,2.87a31.73,31.73,0,0,1,12,10.51,52.25,52.25,0,0,1,7,15.41,95.85,95.85,0,0,1,3.23,17.55A157.68,157.68,0,0,1,585.63,616.09Zm-81.89,51.13a16.34,16.34,0,0,0,3.07,4.79,15.45,15.45,0,0,0,4.51,3.34,10,10,0,0,0,5.51,1.09,28.17,28.17,0,0,0,18.48-9.09A61.4,61.4,0,0,0,547.59,648a106.55,106.55,0,0,0,6.48-23.7,94.76,94.76,0,0,0,1-22.49,60.45,60.45,0,0,0-.9-6.19,25.89,25.89,0,0,0-2-6.09,12.45,12.45,0,0,0-3.78-4.61,8.85,8.85,0,0,0-6.27-1.5,27.37,27.37,0,0,0-13.77,5.06,43.83,43.83,0,0,0-10.71,11.18A71.67,71.67,0,0,0,510,614.76a140.26,140.26,0,0,0-5.15,16.83,97,97,0,0,0-2.54,16.48,94.82,94.82,0,0,0,0,13.74A17.16,17.16,0,0,0,503.74,667.22Z" transform="translate(-79.47 -207.5)"/><path class="cls-2" d="M680.25,690.11c-1.87.65-4.21,1.49-7,2.54L664,696.11q-5,1.88-9.79,3.74t-9,3.56c-2.8,1.12-5,2.08-6.5,2.86q-1.56-9.51-2.83-18.55-1.17-7.85-2.45-15.69t-2-13.07q-1.69,5.44-4.47,13.64t-5.45,16.14q-3.3,9.19-6.8,18.66l-41,0q10.09-22.32,20.23-44.17a466.66,466.66,0,0,0,18.19-45.44q-2.38-10.63-4.43-18.89t-4.43-16.23q-2.39-8-5-16.07t-5.47-18.43L629.78,529q2.18,11.13,4.92,24.62t4.95,24.86q4.46-12.43,8.79-24.86t9-24.64L693,535.29q-5.31,11.07-9.55,20.35t-8,18.53q-3.78,9.24-7.51,18.85t-8,21.29q2.36,10.41,5.08,19.56t5.79,18q3.07,8.9,6.15,17.89t6.6,19.06A26.92,26.92,0,0,1,680.25,690.11Z" transform="translate(-79.47 -207.5)"/><path class="cls-1" d="M148.9,467.28a91.87,91.87,0,0,1-6.45,21.28A54.22,54.22,0,0,1,131.36,505a26.25,26.25,0,0,1-16.81,7.61A42.05,42.05,0,0,1,99.84,511a70.56,70.56,0,0,1-18-8.31l13.27-38.26a10.2,10.2,0,0,0,5,3.78,16.21,16.21,0,0,0,7.69,1.13q2.87-.26,4.72-5.23a64.37,64.37,0,0,0,3-11.46,114.4,114.4,0,0,0,1.49-13.26c.25-4.52.41-8.15.5-10.89q2.5-23.58,4.56-47t5.53-46.86a206.85,206.85,0,0,0,20.9-4.84Q158.77,326.81,169,323q-2.52,12.51-5,28.39t-4.63,32.44q-2.18,16.57-4,32.52t-3.17,28.58Q151,455.65,148.9,467.28Z" transform="translate(-79.47 -207.5)"/><path class="cls-1" d="M244.76,478.15a59.92,59.92,0,0,1-13,17A57.11,57.11,0,0,1,215,505.81a63.76,63.76,0,0,1-18.4,4.5,37.71,37.71,0,0,1-11.39-.81A31.83,31.83,0,0,1,174.48,505a29.11,29.11,0,0,1-8.33-8.43A26.6,26.6,0,0,1,162,483.94c-.05-.63-.11-1.27-.17-1.91a7.85,7.85,0,0,1,.08-1.93q.09-9.89,1-24t2-29.32q1.08-15.27,2.62-30.71t2.72-28.06q1.19-12.63,2.14-21t1.26-10.35q5-.92,11.85-2.24t12.81-2.32l14.46-2.71q-3.69,29.47-6.42,53.32Q205.15,393,204,403.18t-2.21,18.74q-1.07,8.54-1.85,14.74t-1.28,10.11q-.51,3.9-1.06,9.85a59.09,59.09,0,0,0-.15,10.73,10.13,10.13,0,0,0,2.47,6.17,5.81,5.81,0,0,0,5,2.09,8.26,8.26,0,0,0,6.41-3.81,29.23,29.23,0,0,0,3.74-8.16,47.89,47.89,0,0,0,1.83-9.43c.28-3.16.59-5.63.91-7.43q.84-7,1.88-15.7t2-18q1-9.36,1.95-19.08T225.5,375q2.22-21.39,4.08-44.21l36.14-5.57q-1.31,12.64-2.32,23.09t-2.13,23.8q-1.12,13.35-2.75,27.82t-3.17,28.47q-1.54,14-3.17,25.69A77.44,77.44,0,0,1,244.76,478.15Z" transform="translate(-79.47 -207.5)"/><path class="cls-1" d="M258,497.2q3.75-34.29,7.16-66.87,1.22-13.6,2.68-28.55t2.61-29.38q1.14-14.43,2-27.88t1.1-24.55q7.37-1.12,14.27-2.21,6.17-1,12.59-1.94T311.83,314q4.71,18.15,8.57,34.67,1.83,7.07,3.82,14.72T328,378.09q1.81,7.07,3.59,13.53T335,403q.51-5.1,1.13-11.78t1.42-14.1q.8-7.41,1.68-15.2T341,346.84q2.13-17,4.36-35.55l28.85-6.14q-5,36.57-8.4,69.15-1.65,14.13-3.17,28.47t-2.76,27.7q-1.24,13.36-1.94,24.63t-1,19a56.46,56.46,0,0,0-5.52,1.57q-4.81,1.51-11,3.5T328,483.25q-6.19,2.12-9.22,3.34-3.37-19.21-6.81-36.51-1.37-7.33-3-15.15T305.81,420q-1.47-7.09-2.86-13.36c-.93-4.17-1.75-7.68-2.48-10.5q-.35,4.36-1,10.68t-1.23,13.48q-.57,7.17-1.11,14.8t-1.34,14.93q-1.64,17.25-3.6,36Z" transform="translate(-79.47 -207.5)"/><path class="cls-1" d="M374.17,483.54q4.24-34.1,7.7-66.2,1.2-13.84,2.56-28.66t2.37-29.35q1-14.55,1.62-28.21t.61-24.75q5.54,0,12.51-.25t13-.29q7.22-.15,14.39-.78c-.11.65-.24,1.87-.41,3.65s-.38,3.93-.64,6.44-.54,5.31-.83,8.38-.63,6.16-1,9.25q-1,10.68-2.23,24l1.41-.36q2.06-4,5.89-11.24T439,329.94q4.11-8.07,8-15.52t6.6-12.74q11.86-2,23.72-4.25t23.63-5.2q-9.91,16-19.16,31.55-4,6.63-8.07,13.72t-8.06,14q-4,6.84-7.4,13.17t-6.09,11.62q7.36,23.69,16.51,45.53t18.6,44.63c-3.68.16-7.43.37-11.27.62s-7.58.55-11.24.87q-6.94.6-13.38,1.29t-13.36,1.53q-3.51-15.36-7.52-32.23t-7.51-32.23l-3.87,5.4q-1.05,7.32-2.16,18t-2.16,20.66q-1.15,11.67-2.48,24.07Z" transform="translate(-79.47 -207.5)"/><path class="cls-1" d="M539.44,469.8l3.32-171.34a157.16,157.16,0,0,0,21-4.12,187,187,0,0,1,19.51-4.24c0,.16-.09,1.82-.29,5s-.49,7.27-.85,12.36-.74,10.82-1.14,17.2-1.05,15.15-1.92,26.31-2,26.59-3.29,46.3l3.58-.31q4.29-22.55,7.14-36.88T591,336.76q1.76-8.94,3.31-17.28t3-15.43q1.41-7.11,2.2-12l2.15-.19a80.77,80.77,0,0,0,8.69-1.24q4.36-.87,8.27-1.81t8.11-2.28a85.82,85.82,0,0,0-.3,8.94q0,6.75-.14,16.28t-.1,21q0,11.43,0,22.4t0,20.84c0,6.58,0,12.21-.09,16.87l4.31-.38,13.72-104.79q8-1.91,15.83-3.56,6.84-1.55,14.17-3.16t13-3.31q-2.71,10.37-5.22,23t-5.14,26.59q-2.64,13.95-4.89,28.13t-4.47,27.37q-5,31.28-9.32,64.18L604.9,460.7l2.44-93.21-2.87.26L588.4,456.61Z" transform="translate(-79.47 -207.5)"/><path class="cls-1" d="M751.51,448.14l-12.72,3.28q.26-8,.55-15.7.13-6.77.15-13.51c0-4.49,0-8.35.07-11.57l-20.8,1.82-6.55,35.27q-5.21,1.17-12.3,2.64l-13.25,2.72-14.9,3.23q6.78-32.62,13.41-64.29,2.69-13.25,5.64-27.72t5.91-28.82q3-14.36,5.66-27.6T707,283.64q16.15-2.62,32.87-5.77t32.47-7.42q0,7.73.11,19.14t.61,24.89q.47,13.45,1,28.09t1.07,28.82q1.7,33.11,3.5,70.28-7.06,1.83-14.18,3.17Q758.58,446.33,751.51,448.14ZM722.4,388.05c.64-.05,1.79-.19,3.46-.42l5.24-.7,5.12-.69a20.73,20.73,0,0,0,3.31-.65c-.08-1-.1-2.6-.07-4.93s0-5,0-8,0-6.22,0-9.75,0-7,.06-10.37q-.12-12.27.09-26.51l-.39-20.92-3.56.55-3.7,21Z" transform="translate(-79.47 -207.5)"/><path class="cls-1" d="M879.26,422.6q-2.81,1-7,2.54L863,428.6c-3.34,1.26-6.61,2.5-9.79,3.75s-6.17,2.43-9,3.55-5,2.08-6.5,2.86q-1.56-9.5-2.83-18.55-1.17-7.84-2.45-15.68c-.86-5.23-1.53-9.58-2-13.08q-1.69,5.46-4.47,13.64t-5.45,16.14q-3.3,9.21-6.8,18.66l-41,0q10.1-22.32,20.23-44.17a465.65,465.65,0,0,0,18.19-45.44q-2.38-10.62-4.43-18.88t-4.43-16.24q-2.39-8-5-16.06t-5.46-18.43l36.87-19.13q2.18,11.13,4.92,24.62T838.66,311q4.46-12.44,8.79-24.86t9-24.65l35.49,6.3q-5.31,11.06-9.55,20.35t-8,18.52q-3.78,9.25-7.51,18.85t-8,21.3q2.36,10.4,5.08,19.55t5.79,18q3.08,8.89,6.15,17.9t6.6,19.05A25.17,25.17,0,0,1,879.26,422.6Z" transform="translate(-79.47 -207.5)"/><path class="cls-1" d="M447.88,666.89A55,55,0,0,1,438.21,683a75.76,75.76,0,0,1-15.09,13.36,116.84,116.84,0,0,1-18.62,10.3,131.59,131.59,0,0,1-20.34,7.08,124.08,124.08,0,0,1-20.28,3.59,89.49,89.49,0,0,1-16.62,0,795.67,795.67,0,0,0,10.91-85.87q3.1-43,5.56-86.62,12.19-3.71,25.41-6.92a186.35,186.35,0,0,1,27.55-4.46,60.47,60.47,0,0,1,12.8.33A33.63,33.63,0,0,1,442.15,538a32.22,32.22,0,0,1,10.08,9.24q4.25,5.9,5.09,15.45A47.76,47.76,0,0,1,455.81,580a61.89,61.89,0,0,1-6.39,15,54.8,54.8,0,0,1-9.67,12,47.55,47.55,0,0,1-11.58,8.12,32.79,32.79,0,0,1,6.88,4.22,44,44,0,0,1,6.85,6.75,36.89,36.89,0,0,1,5.53,9.51,43.09,43.09,0,0,1,2.92,12.76A41.07,41.07,0,0,1,447.88,666.89Zm-55.36-28.28q-.45,4.5-.81,8.62c-.24,2.76-.51,5.63-.81,8.63s-.6,6.52-.88,10.55a104.08,104.08,0,0,0,10.13-2.57,48.61,48.61,0,0,0,10.68-4.67,26.77,26.77,0,0,0,8.26-7.47,15.15,15.15,0,0,0,2.69-10.47,11.17,11.17,0,0,0-2.9-7,18.79,18.79,0,0,0-6.15-4.28,26.56,26.56,0,0,0-7.77-2.09,38.24,38.24,0,0,0-7.73-.17l-2,.17a7.7,7.7,0,0,0-1.77.4Q393,634.11,392.52,638.61Zm6.07-62.81q-.29,3.65-.65,7.65c-.25,2.67-.54,5.31-.88,7.9s-.58,4.87-.73,6.81a83,83,0,0,0,10.29-3.55,70.45,70.45,0,0,0,9.12-4.53,26.44,26.44,0,0,0,6.31-5,7.19,7.19,0,0,0,2.05-5.48,8.24,8.24,0,0,0-2.66-5.67,16.2,16.2,0,0,0-5.95-3.21,32.15,32.15,0,0,0-7.35-1.4,40.77,40.77,0,0,0-6.62,0l-2.4.21C399,571.27,398.78,573.38,398.59,575.8Z" transform="translate(-79.47 -207.5)"/><path class="cls-1" d="M571.54,605.72a161.82,161.82,0,0,1-8.33,32.77,131.07,131.07,0,0,1-13.88,27.23,126.82,126.82,0,0,1-17.56,21,82.56,82.56,0,0,1-19.25,14,52.16,52.16,0,0,1-19.24,5.9,33.82,33.82,0,0,1-14.61-1.73,31.62,31.62,0,0,1-12-7.87,43.07,43.07,0,0,1-8.85-14.4,78.08,78.08,0,0,1-4.68-21.87,128.58,128.58,0,0,1,.88-28.51,200.65,200.65,0,0,1,6.51-30.2,161.49,161.49,0,0,1,11.68-29,140.38,140.38,0,0,1,16.37-24.92,86.65,86.65,0,0,1,20.1-18,51.33,51.33,0,0,1,23.39-8.07q10.76-.95,18.2,2.86a31.75,31.75,0,0,1,12,10.52,52.39,52.39,0,0,1,7,15.41,95,95,0,0,1,3.22,17.54A157.25,157.25,0,0,1,571.54,605.72Zm-81.9,51.13a17,17,0,0,0,3.07,4.79,16,16,0,0,0,4.51,3.34,10.08,10.08,0,0,0,5.52,1.08A28.15,28.15,0,0,0,521.22,657a61.43,61.43,0,0,0,12.27-19.39A105.55,105.55,0,0,0,540,613.9a94.87,94.87,0,0,0,1-22.5,58.17,58.17,0,0,0-.91-6.18,25.43,25.43,0,0,0-2-6.09,12.37,12.37,0,0,0-3.78-4.61,8.89,8.89,0,0,0-6.28-1.5,27.18,27.18,0,0,0-13.77,5.06,43.58,43.58,0,0,0-10.7,11.17,71.91,71.91,0,0,0-7.71,15.13,141,141,0,0,0-5.16,16.84,97.86,97.86,0,0,0-2.53,16.48,91.91,91.91,0,0,0,0,13.73A17.46,17.46,0,0,0,489.64,656.85Z" transform="translate(-79.47 -207.5)"/><path class="cls-1" d="M666.16,679.73q-2.8,1-7,2.54l-9.21,3.46q-5,1.89-9.79,3.75c-3.19,1.24-6.17,2.43-9,3.55s-5,2.08-6.49,2.86q-1.56-9.5-2.83-18.55-1.17-7.85-2.46-15.68c-.86-5.23-1.52-9.58-2-13.08q-1.7,5.46-4.47,13.64l-5.46,16.14q-3.29,9.21-6.79,18.67l-41,0q10.1-22.32,20.22-44.17a463,463,0,0,0,18.19-45.43q-2.37-10.64-4.42-18.89t-4.43-16.24q-2.38-8-5-16.06t-5.47-18.43l36.87-19.13q2.19,11.13,4.93,24.62t4.94,24.87q4.46-12.43,8.79-24.86t9-24.64l35.48,6.29q-5.29,11.07-9.54,20.35t-8,18.53q-3.76,9.24-7.5,18.84t-8,21.3q2.36,10.39,5.09,19.55t5.79,18q3.06,8.88,6.15,17.89t6.6,19.05A25.86,25.86,0,0,1,666.16,679.73Z" transform="translate(-79.47 -207.5)"/></svg>